<svg width="21" height="19" viewBox="0 0 21 19" fill="none" xmlns="http://www.w3.org/2000/svg">
<path d="M5.53333 15.7334H2.13333C1.83275 15.7334 1.54449 15.614 1.33195 15.4014C1.1194 15.1889 1 14.9006 1 14.6V8.93336C1 8.33221 1.23881 7.75567 1.66389 7.33059C2.08897 6.90551 2.66551 6.6667 3.26667 6.6667H16.8667C17.4678 6.6667 18.0444 6.90551 18.4694 7.33059C18.8945 7.75567 19.1333 8.33221 19.1333 8.93336V14.6C19.1333 14.9006 19.0139 15.1889 18.8014 15.4014C18.5888 15.614 18.3006 15.7334 18 15.7334H14.6M5.53333 1.00003H14.6V6.6667H5.53333V1.00003ZM5.53333 13.4667H14.6V18H5.53333V13.4667Z" stroke="#280559" stroke-width="2" stroke-linejoin="round"/>
</svg>
